<svg xmlns="http://www.w3.org/2000/svg" width="640" height="540" viewBox="0 0 640 540"><defs><linearGradient id="hill" x1="0" y1="0" x2="1" y2="1"><stop stop-color="#D8E4C0"/><stop offset="1" stop-color="#BACDB0"/></linearGradient><linearGradient id="road" x1="0" y1="0" x2="1" y2="1"><stop stop-color="#4C6250"/><stop offset="1" stop-color="#233B2D"/></linearGradient><linearGradient id="car" x1="0" y1="0" x2="0" y2="1"><stop stop-color="#E9FFA1"/><stop offset="1" stop-color="#B6D960"/></linearGradient></defs>
<circle cx="431" cy="158" r="106" fill="#E5EDCC"/><circle cx="476" cy="135" r="53" fill="#DDF781"/>
<path d="M48 319C129 195 272 263 331 225c88-61 236-4 255 99 35 141-390 245-520 107-32-34-39-76-18-112" fill="url(#hill)"/>
<ellipse cx="328" cy="416" rx="227" ry="55" fill="#829C7B" opacity=".18"/>
<path d="M65 379C191 449 410 429 462 354c60-87-199-23-159-107 19-40 72-55 136-74" fill="none" stroke="#A3B696" stroke-width="83" stroke-linecap="round"/>
<path d="M65 367C191 437 410 417 462 342c60-87-199-23-159-107 19-40 72-55 136-74" fill="none" stroke="#F3F0DB" stroke-width="77" stroke-linecap="round"/>
<path d="M65 367C191 437 410 417 462 342c60-87-199-23-159-107 19-40 72-55 136-74" fill="none" stroke="url(#road)" stroke-width="64" stroke-linecap="round"/>
<path d="M65 367C191 437 410 417 462 342c60-87-199-23-159-107 19-40 72-55 136-74" fill="none" stroke="#F0F3DD" stroke-opacity=".85" stroke-width="3" stroke-dasharray="13 15"/>
<g transform="translate(135 236)"><ellipse cx="0" cy="66" rx="26" ry="11" fill="#A8BF96"/><path d="M0 15v51" stroke="#5A7453" stroke-width="7"/><ellipse cy="8" rx="30" ry="43" fill="#71936B"/><ellipse cx="-8" cy="0" rx="20" ry="31" fill="#88A77B"/></g>
<g transform="translate(541 283) scale(.78)"><ellipse cx="0" cy="66" rx="26" ry="11" fill="#A8BF96"/><path d="M0 15v51" stroke="#5A7453" stroke-width="7"/><ellipse cy="8" rx="30" ry="43" fill="#628560"/><ellipse cx="-8" cy="0" rx="20" ry="31" fill="#81A575"/></g>
<g transform="translate(216 303) scale(.48)"><path d="M0 0v54" stroke="#5A7453" stroke-width="9"/><ellipse cy="0" rx="30" ry="43" fill="#93AB78"/></g>
<g transform="translate(451 164)"><ellipse cy="13" rx="26" ry="10" fill="#213B2C" opacity=".16"/><path d="M0 0v-67" stroke="#536747" stroke-width="6"/><rect x="-29" y="-108" width="61" height="47" rx="13" fill="#F8F8EC"/><path d="m-12-86 9 9 18-20" fill="none" stroke="#496136" stroke-width="5" stroke-linecap="round" stroke-linejoin="round"/></g>
<g transform="translate(245 393) rotate(6)"><ellipse cy="13" rx="55" ry="17" fill="#101A14" opacity=".22"/><rect x="-41" y="-19" width="22" height="44" rx="10" fill="#24372A"/><rect x="24" y="-19" width="22" height="44" rx="10" fill="#24372A"/><path d="M-47-24q0-13 15-14h68q14 1 14 15v34q0 10-10 10h-77q-10-1-10-10Z" fill="#9CBD50"/><path d="M-50-31q0-13 15-14h68q15 1 15 14v33q0 10-10 10h-78q-10-1-10-10Z" fill="url(#car)"/><path d="m-28-37 4 30h43l6-30Z" fill="#35513B"/><path d="m-22-34 3 21h35l4-21Z" fill="#496A4D"/><rect x="-39" y="-31" width="7" height="29" rx="3" fill="#628147"/><path d="M32-36v26" stroke="#EBFFB2" stroke-width="4"/><rect x="37" y="-33" width="7" height="9" rx="2" fill="#FFFCD8"/><rect x="37" y="-9" width="7" height="9" rx="2" fill="#FFFCD8"/><path d="M-20 4h35" stroke="#AEC95F" stroke-width="2"/></g>
<g fill="#58744E"><path d="m88 310 8-21 8 21Zm405 110 6-17 6 17Z"/><circle cx="356" cy="457" r="4"/><circle cx="382" cy="448" r="3"/></g>
<g fill="#E3F29F"><path d="m520 200 3 9 9 3-9 3-3 9-3-9-9-3 9-3Z"/><path d="m223 166 2 6 6 2-6 2-2 6-2-6-6-2 6-2Z"/></g></svg>